<?xml version="1.0" encoding="UTF-8"?>
<svg id="Layer_2" data-name="Layer 2" xmlns="http://www.w3.org/2000/svg" xmlns:xlink="http://www.w3.org/1999/xlink" viewBox="0 0 48 48">
  <defs>
    <style>
      .cls-1 {
        fill: #fff;
      }

      .cls-2 {
        fill: url(#Chato_BG);
      }
    </style>
    <linearGradient id="Chato_BG" data-name="Chato BG" x1="7.61" y1="-4.39" x2="40.39" y2="52.39" gradientUnits="userSpaceOnUse">
      <stop offset=".13" stop-color="#d40cd7"/>
      <stop offset=".52" stop-color="#309df9"/>
      <stop offset="1" stop-color="#8156eb"/>
    </linearGradient>
  </defs>
  <g id="Layer_1-2" data-name="Layer 1">
    <g>
      <rect class="cls-2" width="48" height="48"/>
      <g id="Layer_1-2" data-name="Layer 1-2">
        <path class="cls-1" d="m31.27,39.59h-14.54c-7.48,0-13.56-6.08-13.56-13.56v-.49c0-3.4,1.26-6.62,3.55-9.13-1-.75-2.77-2.51-3.34-5.8-.06-.35-.24-1.4.42-1.94.42-.34,1.02-.35,1.79-.04.73.23,19.99,6.1,36.82,0,.77-.31,1.38-.3,1.8.03.66.53.48,1.59.42,1.94-.57,3.28-2.34,5.04-3.34,5.79,2.3,2.51,3.56,5.73,3.56,9.14v.49c0,7.48-6.08,13.56-13.56,13.56h0ZM4.52,9.6s-.1.18,0,.81c.66,3.76,3.1,5.23,3.38,5.38l.63.35-.61.69c-2.32,2.34-3.6,5.43-3.6,8.7v.49c0,6.83,5.56,12.39,12.39,12.39h14.54c6.83,0,12.39-5.56,12.39-12.39v-.49c0-3.27-1.28-6.36-3.6-8.7l-.03-.03-.56-.67.62-.35c.27-.16,2.71-1.63,3.37-5.37.11-.63,0-.81,0-.82h-.05c-.08,0-.25.02-.57.15h-.02c-5.04,1.83-13.54,3.74-25.43,2.42-7.09-.8-12.12-2.39-12.17-2.41l-.04-.02c-.46-.19-.62-.14-.63-.14h0Zm9.79,24.51c-4.64,0-8.41-3.77-8.41-8.41s3.77-8.41,8.41-8.41,8.41,3.77,8.41,8.41-3.77,8.41-8.41,8.41Zm0-15.64c-3.99,0-7.23,3.25-7.23,7.23s3.25,7.23,7.23,7.23,7.23-3.25,7.23-7.23-3.25-7.23-7.23-7.23Zm19.42,15.74c-4.64,0-8.41-3.77-8.41-8.41s3.77-8.41,8.41-8.41,8.41,3.77,8.41,8.41-3.77,8.41-8.41,8.41Zm0-15.64c-3.99,0-7.23,3.25-7.23,7.23s3.25,7.23,7.23,7.23,7.23-3.25,7.23-7.23-3.25-7.23-7.23-7.23Zm-9.81,17.35c-.94,0-1.83-.37-2.51-1.04-.18-.18-.27-.41-.27-.66s.1-.48.27-.66l1.85-1.85c.18-.18.41-.27.66-.27s.48.1.66.27l1.85,1.85c.18.18.27.41.27.66s-.1.48-.27.66h0c-.67.67-1.56,1.04-2.51,1.04Zm-1.78-1.7c.48.46,1.11.72,1.78.72s1.3-.25,1.78-.72l-1.78-1.78-1.78,1.78Zm-4.81-6c0,.48-.22.76-.57.76-.12,0-.27-.05-.42-.11l-4.22-1.91c-.5-.2-.84-.7-.84-1.26s.34-1.07.84-1.27l4.22-1.91c.15-.06.3-.09.4-.09.37,0,.59.28.59.78,0,.64-.42,1.18-1.04,1.32l-3.11,1.18,3.11,1.16c.62.15,1.04.68,1.04,1.33v.02Zm13.36.1c0,.48.22.76.57.76.12,0,.27-.05.42-.11l4.22-1.91c.5-.2.84-.7.84-1.26s-.34-1.07-.84-1.27l-4.22-1.91c-.15-.06-.3-.09-.4-.09-.37,0-.59.28-.59.78,0,.64.42,1.18,1.04,1.32l3.11,1.18-3.11,1.16c-.62.15-1.04.68-1.04,1.33v.02Z"/>
      </g>
    </g>
  </g>
</svg>